{
    "asset" : {
        "generator" : "Khronos glTF Blender I/O v1.7.33",
        "version" : "2.0"
    },
    "scene" : 0,
    "scenes" : [
        {
            "name" : "Scene",
            "nodes" : [
                0,
                1
            ]
        }
    ],
    "nodes" : [
        {
            "mesh" : 0,
            "name" : "Cylinder",
            "rotation" : [
                0.33112287521362305,
                0.07140939682722092,
                -0.042630091309547424,
                0.9399155378341675
            ],
            "translation" : [
                0.006183840334415436,
                -0.14903154969215393,
                -0.09932072460651398
            ]
        },
        {
            "mesh" : 1,
            "name" : "Cube",
            "translation" : [
                0.047878447920084,
                0.06725743412971497,
                0.19010183215141296
            ]
        }
    ],
    "materials" : [
        {
            "doubleSided" : true,
            "name" : "Material.001",
            "pbrMetallicRoughness" : {
                "baseColorFactor" : [
                    0.3672420084476471,
                    0.21632066369056702,
                    0.06135588511824608,
                    1
                ],
                "metallicFactor" : 0,
                "roughnessFactor" : 100
            }
        },
        {
            "doubleSided" : true,
            "name" : "Material.002",
            "pbrMetallicRoughness" : {
                "baseColorFactor" : [
                    0.8000000715255737,
                    0.7542654871940613,
                    0.6845876574516296,
                    1
                ],
                "metallicFactor" : 0.800000011920929,
                "roughnessFactor" : 0.5
            }
        }
    ],
    "meshes" : [
        {
            "name" : "Cylinder",
            "primitives" : [
                {
                    "attributes" : {
                        "POSITION" : 0,
                        "NORMAL" : 1,
                        "TEXCOORD_0" : 2
                    },
                    "indices" : 3,
                    "material" : 0
                }
            ]
        },
        {
            "name" : "Cube.001",
            "primitives" : [
                {
                    "attributes" : {
                        "POSITION" : 4,
                        "NORMAL" : 5,
                        "TEXCOORD_0" : 6
                    },
                    "indices" : 7,
                    "material" : 1
                }
            ]
        }
    ],
    "accessors" : [
        {
            "bufferView" : 0,
            "componentType" : 5126,
            "count" : 130,
            "max" : [
                0.04467407241463661,
                0.4427911937236786,
                0.04617849737405777
            ],
            "min" : [
                -0.08183187246322632,
                -0.2674258351325989,
                -0.06884996592998505
            ],
            "type" : "VEC3"
        },
        {
            "bufferView" : 1,
            "componentType" : 5126,
            "count" : 130,
            "type" : "VEC3"
        },
        {
            "bufferView" : 2,
            "componentType" : 5126,
            "count" : 130,
            "type" : "VEC2"
        },
        {
            "bufferView" : 3,
            "componentType" : 5123,
            "count" : 420,
            "type" : "SCALAR"
        },
        {
            "bufferView" : 4,
            "componentType" : 5126,
            "count" : 20,
            "max" : [
                0.061715781688690186,
                0.09155429899692535,
                0.11622759699821472
            ],
            "min" : [
                -0.04835560545325279,
                -0.14600618183612823,
                -0.09179630130529404
            ],
            "type" : "VEC3"
        },
        {
            "bufferView" : 5,
            "componentType" : 5126,
            "count" : 20,
            "type" : "VEC3"
        },
        {
            "bufferView" : 6,
            "componentType" : 5126,
            "count" : 20,
            "type" : "VEC2"
        },
        {
            "bufferView" : 7,
            "componentType" : 5123,
            "count" : 48,
            "type" : "SCALAR"
        }
    ],
    "bufferViews" : [
        {
            "buffer" : 0,
            "byteLength" : 1560,
            "byteOffset" : 0
        },
        {
            "buffer" : 0,
            "byteLength" : 1560,
            "byteOffset" : 1560
        },
        {
            "buffer" : 0,
            "byteLength" : 1040,
            "byteOffset" : 3120
        },
        {
            "buffer" : 0,
            "byteLength" : 840,
            "byteOffset" : 4160
        },
        {
            "buffer" : 0,
            "byteLength" : 240,
            "byteOffset" : 5000
        },
        {
            "buffer" : 0,
            "byteLength" : 240,
            "byteOffset" : 5240
        },
        {
            "buffer" : 0,
            "byteLength" : 160,
            "byteOffset" : 5480
        },
        {
            "buffer" : 0,
            "byteLength" : 96,
            "byteOffset" : 5640
        }
    ],
    "buffers" : [
        {
            "byteLength" : 5736,
            "uri" : "data:application/octet-stream;base64,"
        }
    ]
}
