{
    "asset" : {
        "generator" : "Khronos glTF Blender I/O v1.7.33",
        "version" : "2.0"
    },
    "scene" : 0,
    "scenes" : [
        {
            "name" : "Scene",
            "nodes" : [
                1,
                2,
                3,
                4,
                5
            ]
        }
    ],
    "nodes" : [
        {
            "mesh" : 0,
            "name" : "Icing",
            "translation" : [
                0.004628921393305063,
                -0.019862670451402664,
                -0.002225348725914955
            ]
        },
        {
            "children" : [
                0
            ],
            "mesh" : 1,
            "name" : "Donut",
            "rotation" : [
                0.009336312301456928,
                0.5176989436149597,
                -0.13576465845108032,
                0.844670832157135
            ],
            "translation" : [
                0.004407011903822422,
                0.002591028343886137,
                0.00410130899399519
            ]
        },
        {
            "mesh" : 2,
            "name" : "Plane",
            "scale" : [
                3.279951572418213,
                3.279951572418213,
                3.279951572418213
            ],
            "translation" : [
                -0.7407764792442322,
                -0.07061110436916351,
                -0.5005435347557068
            ]
        },
        {
            "mesh" : 3,
            "name" : "Sprinkle",
            "rotation" : [
                0.7067537307739258,
                0,
                0,
                0.7074597477912903
            ],
            "translation" : [
                3.807562828063965,
                -0.03793849050998688,
                -1.763366460800171
            ]
        },
        {
            "mesh" : 4,
            "name" : "Sprinkle.001",
            "rotation" : [
                0.7014776468276978,
                0,
                0,
                0.7126914858818054
            ],
            "translation" : [
                3.816030979156494,
                -0.03424268588423729,
                -1.774627447128296
            ]
        },
        {
            "mesh" : 5,
            "name" : "Sprinkle.004",
            "rotation" : [
                0.6681177616119385,
                0,
                0,
                0.7440556287765503
            ],
            "translation" : [
                3.7887911796569824,
                -0.03957168012857437,
                -1.7534559965133667
            ]
        }
    ],
    "animations" : [
        {
            "channels" : [
                {
                    "sampler" : 0,
                    "target" : {
                        "node" : 1,
                        "path" : "rotation"
                    }
                }
            ],
            "name" : "DonutAction",
            "samplers" : [
                {
                    "input" : 23,
                    "interpolation" : "LINEAR",
                    "output" : 24
                }
            ]
        }
    ],
    "materials" : [
        {
            "doubleSided" : true,
            "name" : "Material.001",
            "pbrMetallicRoughness" : {
                "baseColorFactor" : [
                    0.22658586502075195,
                    0.07171537727117538,
                    0.001530442270450294,
                    1
                ],
                "metallicFactor" : 0,
                "roughnessFactor" : 0.30000001192092896
            }
        },
        {
            "doubleSided" : true,
            "name" : "Material.002",
            "pbrMetallicRoughness" : {
                "baseColorFactor" : [
                    0.9258303046226501,
                    0.4653737545013428,
                    0.16310735046863556,
                    1
                ],
                "metallicFactor" : 0,
                "roughnessFactor" : 0.8999999761581421
            }
        },
        {
            "doubleSided" : true,
            "name" : "Material.003",
            "pbrMetallicRoughness" : {
                "baseColorFactor" : [
                    0.868892252445221,
                    0.7078303098678589,
                    0.7078303098678589,
                    1
                ],
                "metallicFactor" : 0,
                "roughnessFactor" : 0.5
            }
        },
        {
            "doubleSided" : true,
            "name" : "Sprinkle Color",
            "pbrMetallicRoughness" : {
                "metallicFactor" : 0
            }
        }
    ],
    "meshes" : [
        {
            "name" : "Torus.002",
            "primitives" : [
                {
                    "attributes" : {
                        "POSITION" : 0,
                        "NORMAL" : 1,
                        "TEXCOORD_0" : 2
                    },
                    "indices" : 3,
                    "material" : 0
                }
            ]
        },
        {
            "name" : "Torus.001",
            "primitives" : [
                {
                    "attributes" : {
                        "POSITION" : 4,
                        "NORMAL" : 5,
                        "TEXCOORD_0" : 6
                    },
                    "indices" : 7,
                    "material" : 1
                }
            ]
        },
        {
            "name" : "Plane",
            "primitives" : [
                {
                    "attributes" : {
                        "POSITION" : 8,
                        "NORMAL" : 9,
                        "TEXCOORD_0" : 10
                    },
                    "indices" : 11,
                    "material" : 2
                }
            ]
        },
        {
            "name" : "Cylinder",
            "primitives" : [
                {
                    "attributes" : {
                        "POSITION" : 12,
                        "NORMAL" : 13,
                        "TEXCOORD_0" : 14
                    },
                    "indices" : 15,
                    "material" : 3
                }
            ]
        },
        {
            "name" : "Cylinder.001",
            "primitives" : [
                {
                    "attributes" : {
                        "POSITION" : 16,
                        "NORMAL" : 17,
                        "TEXCOORD_0" : 18
                    },
                    "indices" : 19,
                    "material" : 3
                }
            ]
        },
        {
            "name" : "Cylinder.005",
            "primitives" : [
                {
                    "attributes" : {
                        "POSITION" : 20,
                        "NORMAL" : 21,
                        "TEXCOORD_0" : 22
                    },
                    "indices" : 15,
                    "material" : 3
                }
            ]
        }
    ],
    "accessors" : [
        {
            "bufferView" : 0,
            "componentType" : 5126,
            "count" : 441,
            "max" : [
                0.22368422150611877,
                0.10663735866546631,
                0.22942519187927246
            ],
            "min" : [
                -0.2277764081954956,
                -0.019359443336725235,
                -0.2254028022289276
            ],
            "type" : "VEC3"
        },
        {
            "bufferView" : 1,
            "componentType" : 5126,
            "count" : 441,
            "type" : "VEC3"
        },
        {
            "bufferView" : 2,
            "componentType" : 5126,
            "count" : 441,
            "type" : "VEC2"
        },
        {
            "bufferView" : 3,
            "componentType" : 5123,
            "count" : 2304,
            "type" : "SCALAR"
        },
        {
            "bufferView" : 4,
            "componentType" : 5126,
            "count" : 3359,
            "max" : [
                0.2212093472480774,
                0.10129181295633316,
                0.22022490203380585
            ],
            "min" : [
                -0.22237494587898254,
                -0.09676805138587952,
                -0.220638245344162
            ],
            "type" : "VEC3"
        },
        {
            "bufferView" : 5,
            "componentType" : 5126,
            "count" : 3359,
            "type" : "VEC3"
        },
        {
            "bufferView" : 6,
            "componentType" : 5126,
            "count" : 3359,
            "type" : "VEC2"
        },
        {
            "bufferView" : 7,
            "componentType" : 5123,
            "count" : 18432,
            "type" : "SCALAR"
        },
        {
            "bufferView" : 8,
            "componentType" : 5126,
            "count" : 4,
            "max" : [
                1,
                0,
                1
            ],
            "min" : [
                -1,
                0,
                -1
            ],
            "type" : "VEC3"
        },
        {
            "bufferView" : 9,
            "componentType" : 5126,
            "count" : 4,
            "type" : "VEC3"
        },
        {
            "bufferView" : 10,
            "componentType" : 5126,
            "count" : 4,
            "type" : "VEC2"
        },
        {
            "bufferView" : 11,
            "componentType" : 5123,
            "count" : 6,
            "type" : "SCALAR"
        },
        {
            "bufferView" : 12,
            "componentType" : 5126,
            "count" : 52,
            "max" : [
                0.005530090071260929,
                0.0028832387179136276,
                0.007555565796792507
            ],
            "min" : [
                -0.005583560559898615,
                -0.0028841528110206127,
                -0.007670594844967127
            ],
            "type" : "VEC3"
        },
        {
            "bufferView" : 13,
            "componentType" : 5126,
            "count" : 52,
            "type" : "VEC3"
        },
        {
            "bufferView" : 14,
            "componentType" : 5126,
            "count" : 52,
            "type" : "VEC2"
        },
        {
            "bufferView" : 15,
            "componentType" : 5123,
            "count" : 180,
            "type" : "SCALAR"
        },
        {
            "bufferView" : 16,
            "componentType" : 5126,
            "count" : 81,
            "max" : [
                0.007717910222709179,
                0.0033586882054805756,
                0.012224797159433365
            ],
            "min" : [
                -0.006260668858885765,
                -0.003264158731326461,
                -0.009217138402163982
            ],
            "type" : "VEC3"
        },
        {
            "bufferView" : 17,
            "componentType" : 5126,
            "count" : 81,
            "type" : "VEC3"
        },
        {
            "bufferView" : 18,
            "componentType" : 5126,
            "count" : 81,
            "type" : "VEC2"
        },
        {
            "bufferView" : 19,
            "componentType" : 5123,
            "count" : 336,
            "type" : "SCALAR"
        },
        {
            "bufferView" : 20,
            "componentType" : 5126,
            "count" : 52,
            "max" : [
                0.004198504611849785,
                0.00287130125798285,
                0.005040829069912434
            ],
            "min" : [
                -0.004251975566148758,
                -0.0028703866992145777,
                -0.005155858583748341
            ],
            "type" : "VEC3"
        },
        {
            "bufferView" : 21,
            "componentType" : 5126,
            "count" : 52,
            "type" : "VEC3"
        },
        {
            "bufferView" : 22,
            "componentType" : 5126,
            "count" : 52,
            "type" : "VEC2"
        },
        {
            "bufferView" : 23,
            "componentType" : 5126,
            "count" : 156,
            "max" : [
                6.5
            ],
            "min" : [
                0.041666666666666664
            ],
            "type" : "SCALAR"
        },
        {
            "bufferView" : 24,
            "componentType" : 5126,
            "count" : 156,
            "type" : "VEC4"
        }
    ],
    "bufferViews" : [
        {
            "buffer" : 0,
            "byteLength" : 5292,
            "byteOffset" : 0
        },
        {
            "buffer" : 0,
            "byteLength" : 5292,
            "byteOffset" : 5292
        },
        {
            "buffer" : 0,
            "byteLength" : 3528,
            "byteOffset" : 10584
        },
        {
            "buffer" : 0,
            "byteLength" : 4608,
            "byteOffset" : 14112
        },
        {
            "buffer" : 0,
            "byteLength" : 40308,
            "byteOffset" : 18720
        },
        {
            "buffer" : 0,
            "byteLength" : 40308,
            "byteOffset" : 59028
        },
        {
            "buffer" : 0,
            "byteLength" : 26872,
            "byteOffset" : 99336
        },
        {
            "buffer" : 0,
            "byteLength" : 36864,
            "byteOffset" : 126208
        },
        {
            "buffer" : 0,
            "byteLength" : 48,
            "byteOffset" : 163072
        },
        {
            "buffer" : 0,
            "byteLength" : 48,
            "byteOffset" : 163120
        },
        {
            "buffer" : 0,
            "byteLength" : 32,
            "byteOffset" : 163168
        },
        {
            "buffer" : 0,
            "byteLength" : 12,
            "byteOffset" : 163200
        },
        {
            "buffer" : 0,
            "byteLength" : 624,
            "byteOffset" : 163212
        },
        {
            "buffer" : 0,
            "byteLength" : 624,
            "byteOffset" : 163836
        },
        {
            "buffer" : 0,
            "byteLength" : 416,
            "byteOffset" : 164460
        },
        {
            "buffer" : 0,
            "byteLength" : 360,
            "byteOffset" : 164876
        },
        {
            "buffer" : 0,
            "byteLength" : 972,
            "byteOffset" : 165236
        },
        {
            "buffer" : 0,
            "byteLength" : 972,
            "byteOffset" : 166208
        },
        {
            "buffer" : 0,
            "byteLength" : 648,
            "byteOffset" : 167180
        },
        {
            "buffer" : 0,
            "byteLength" : 672,
            "byteOffset" : 167828
        },
        {
            "buffer" : 0,
            "byteLength" : 624,
            "byteOffset" : 168500
        },
        {
            "buffer" : 0,
            "byteLength" : 624,
            "byteOffset" : 169124
        },
        {
            "buffer" : 0,
            "byteLength" : 416,
            "byteOffset" : 169748
        },
        {
            "buffer" : 0,
            "byteLength" : 624,
            "byteOffset" : 170164
        },
        {
            "buffer" : 0,
            "byteLength" : 2496,
            "byteOffset" : 170788
        }
    ],
    "buffers" : [
        {
            "byteLength" : 173284,
            "uri" : "data:application/octet-stream;base64,"
        }
    ]
}
